<svg xmlns="http://www.w3.org/2000/svg" xmlns:xlink="http://www.w3.org/1999/xlink" width="500" zoomAndPan="magnify" viewBox="0 0 375 374.999991" height="500" preserveAspectRatio="xMidYMid meet" version="1.0"><defs><clipPath id="2446ab5db4"><path d="M 0 131.914062 L 158.070312 131.914062 L 158.070312 243.058594 L 0 243.058594 Z M 0 131.914062 " clip-rule="nonzero"/></clipPath><clipPath id="2fb53106dd"><path d="M 216.910156 131.914062 L 374.980469 131.914062 L 374.980469 243.058594 L 216.910156 243.058594 Z M 216.910156 131.914062 " clip-rule="nonzero"/></clipPath><clipPath id="4836822702"><path d="M 131.917969 0 L 243.0625 0 L 243.0625 158.066406 L 131.917969 158.066406 Z M 131.917969 0 " clip-rule="nonzero"/></clipPath><clipPath id="5a1a06a797"><path d="M 131.917969 216.90625 L 243.0625 216.90625 L 243.0625 374.976562 L 131.917969 374.976562 Z M 131.917969 216.90625 " clip-rule="nonzero"/></clipPath></defs><g clip-path="url(#2446ab5db4)"><path fill="#ff914d" d="M 244.296875 102.410156 L 244.296875 -0.945312 L 131.542969 -0.945312 L 131.542969 102.410156 L 187.921875 158.789062 Z M 103.355469 130.601562 L 0 130.601562 L 0 243.351562 L 103.355469 243.351562 L 159.734375 186.976562 Z M 131.542969 271.539062 L 131.542969 374.898438 L 244.296875 374.898438 L 244.296875 271.539062 L 187.921875 215.164062 Z M 272.484375 130.601562 L 216.109375 186.976562 L 272.484375 243.351562 L 375.839844 243.351562 L 375.839844 130.601562 Z M 272.484375 130.601562 " fill-opacity="1" fill-rule="nonzero"/></g><g clip-path="url(#2fb53106dd)"><path fill="#004aad" d="M 130.683594 272.5625 L 130.683594 375.917969 L 243.433594 375.917969 L 243.433594 272.5625 L 187.058594 216.1875 Z M 271.621094 244.375 L 374.980469 244.375 L 374.980469 131.621094 L 271.621094 131.621094 L 215.246094 187.996094 Z M 243.433594 103.433594 L 243.433594 0.078125 L 130.683594 0.078125 L 130.683594 103.433594 L 187.058594 159.808594 Z M 102.492188 244.375 L 158.871094 187.996094 L 102.492188 131.621094 L -0.863281 131.621094 L -0.863281 244.375 Z M 102.492188 244.375 " fill-opacity="1" fill-rule="nonzero"/></g><g clip-path="url(#4836822702)"><path fill="#ff3131" d="M 272.566406 244.292969 L 375.921875 244.292969 L 375.921875 131.542969 L 272.566406 131.542969 L 216.1875 187.917969 Z M 244.375 103.355469 L 244.375 -0.00390625 L 131.625 -0.00390625 L 131.625 103.355469 L 188 159.730469 Z M 103.4375 131.542969 L 0.078125 131.542969 L 0.078125 244.292969 L 103.4375 244.292969 L 159.8125 187.917969 Z M 244.375 272.484375 L 188 216.105469 L 131.625 272.484375 L 131.625 375.839844 L 244.375 375.839844 Z M 244.375 272.484375 " fill-opacity="1" fill-rule="nonzero"/></g><g clip-path="url(#5a1a06a797)"><path fill="#00bf63" d="M 102.414062 130.679688 L -0.941406 130.679688 L -0.941406 243.433594 L 102.414062 243.433594 L 158.789062 187.054688 Z M 130.601562 271.621094 L 130.601562 374.976562 L 243.355469 374.976562 L 243.355469 271.621094 L 186.980469 215.242188 Z M 271.542969 243.433594 L 374.898438 243.433594 L 374.898438 130.679688 L 271.542969 130.679688 L 215.167969 187.054688 Z M 130.601562 102.492188 L 186.980469 158.867188 L 243.355469 102.492188 L 243.355469 -0.863281 L 130.601562 -0.863281 Z M 130.601562 102.492188 " fill-opacity="1" fill-rule="nonzero"/></g></svg>