<svg xmlns="http://www.w3.org/2000/svg" xmlns:xlink="http://www.w3.org/1999/xlink" width="500" zoomAndPan="magnify" viewBox="0 0 375 374.999991" height="500" preserveAspectRatio="xMidYMid meet" version="1.0"><defs><clipPath id="34e09d6b22"><path d="M 84.03125 156.828125 L 171.257812 156.828125 L 171.257812 218.160156 L 84.03125 218.160156 Z M 84.03125 156.828125 " clip-rule="nonzero"/></clipPath><clipPath id="7449bae55d"><path d="M 203.730469 156.828125 L 290.957031 156.828125 L 290.957031 218.160156 L 203.730469 218.160156 Z M 203.730469 156.828125 " clip-rule="nonzero"/></clipPath><clipPath id="8d6c85f62d"><path d="M 156.828125 84.03125 L 218.160156 84.03125 L 218.160156 171.257812 L 156.828125 171.257812 Z M 156.828125 84.03125 " clip-rule="nonzero"/></clipPath><clipPath id="39d0417ab9"><path d="M 156.828125 203.726562 L 218.160156 203.726562 L 218.160156 290.957031 L 156.828125 290.957031 Z M 156.828125 203.726562 " clip-rule="nonzero"/></clipPath></defs><g clip-path="url(#34e09d6b22)"><path fill="#ff914d" d="M 218.84375 140.546875 L 218.84375 83.511719 L 156.621094 83.511719 L 156.621094 140.546875 L 187.730469 171.65625 Z M 141.066406 156.101562 L 84.03125 156.101562 L 84.03125 218.320312 L 141.066406 218.320312 L 172.175781 187.210938 Z M 156.621094 233.875 L 156.621094 290.910156 L 218.84375 290.910156 L 218.84375 233.875 L 187.730469 202.765625 Z M 234.398438 156.101562 L 203.289062 187.210938 L 234.398438 218.320312 L 291.433594 218.320312 L 291.433594 156.101562 Z M 234.398438 156.101562 " fill-opacity="1" fill-rule="nonzero"/></g><g clip-path="url(#7449bae55d)"><path fill="#004aad" d="M 156.144531 234.441406 L 156.144531 291.476562 L 218.367188 291.476562 L 218.367188 234.441406 L 187.257812 203.328125 Z M 233.921875 218.886719 L 290.957031 218.886719 L 290.957031 156.664062 L 233.921875 156.664062 L 202.8125 187.773438 Z M 218.367188 141.109375 L 218.367188 84.074219 L 156.144531 84.074219 L 156.144531 141.109375 L 187.257812 172.21875 Z M 140.589844 218.886719 L 171.699219 187.773438 L 140.589844 156.664062 L 83.554688 156.664062 L 83.554688 218.886719 Z M 140.589844 218.886719 " fill-opacity="1" fill-rule="nonzero"/></g><g clip-path="url(#8d6c85f62d)"><path fill="#ff3131" d="M 234.441406 218.839844 L 291.476562 218.839844 L 291.476562 156.621094 L 234.441406 156.621094 L 203.332031 187.730469 Z M 218.886719 141.066406 L 218.886719 84.03125 L 156.664062 84.03125 L 156.664062 141.066406 L 187.777344 172.175781 Z M 141.109375 156.621094 L 84.074219 156.621094 L 84.074219 218.839844 L 141.109375 218.839844 L 172.222656 187.730469 Z M 218.886719 234.394531 L 187.777344 203.285156 L 156.664062 234.394531 L 156.664062 291.429688 L 218.886719 291.429688 Z M 218.886719 234.394531 " fill-opacity="1" fill-rule="nonzero"/></g><g clip-path="url(#39d0417ab9)"><path fill="#00bf63" d="M 140.546875 156.144531 L 83.511719 156.144531 L 83.511719 218.363281 L 140.546875 218.363281 L 171.65625 187.253906 Z M 156.101562 233.921875 L 156.101562 290.957031 L 218.324219 290.957031 L 218.324219 233.921875 L 187.210938 202.808594 Z M 233.878906 218.363281 L 290.914062 218.363281 L 290.914062 156.144531 L 233.878906 156.144531 L 202.765625 187.253906 Z M 156.101562 140.589844 L 187.210938 171.699219 L 218.324219 140.589844 L 218.324219 83.554688 L 156.101562 83.554688 Z M 156.101562 140.589844 " fill-opacity="1" fill-rule="nonzero"/></g></svg>