<svg xmlns="http://www.w3.org/2000/svg" xmlns:xlink="http://www.w3.org/1999/xlink" width="500" zoomAndPan="magnify" viewBox="0 0 375 374.999991" height="500" preserveAspectRatio="xMidYMid meet" version="1.0"><defs><g/><clipPath id="6c81243788"><path d="M 84.03125 126.015625 L 171.257812 126.015625 L 171.257812 187.347656 L 84.03125 187.347656 Z M 84.03125 126.015625 " clip-rule="nonzero"/></clipPath><clipPath id="0dc05a5f76"><path d="M 203.730469 126.015625 L 290.957031 126.015625 L 290.957031 187.347656 L 203.730469 187.347656 Z M 203.730469 126.015625 " clip-rule="nonzero"/></clipPath><clipPath id="b5657d14fc"><path d="M 156.828125 53.21875 L 218.160156 53.21875 L 218.160156 140.445312 L 156.828125 140.445312 Z M 156.828125 53.21875 " clip-rule="nonzero"/></clipPath><clipPath id="8afa14c2ca"><path d="M 156.828125 172.914062 L 218.160156 172.914062 L 218.160156 260.144531 L 156.828125 260.144531 Z M 156.828125 172.914062 " clip-rule="nonzero"/></clipPath></defs><g fill="#000000" fill-opacity="1"><g transform="translate(33.544725, 314.271131)"><g><path d="M 9.953125 -21.109375 L 1.5 -21.109375 L 1.5 0 L 6.609375 0 L 6.609375 -6.21875 L 9.953125 -6.21875 C 14.859375 -6.21875 17.3125 -9.953125 17.3125 -13.640625 C 17.3125 -17.3125 14.859375 -21.109375 9.953125 -21.109375 Z M 9.953125 -11.03125 L 6.609375 -11.03125 L 6.609375 -16.15625 L 9.953125 -16.15625 C 11.546875 -16.15625 12.328125 -14.796875 12.328125 -13.546875 C 12.328125 -12.328125 11.546875 -11.03125 9.953125 -11.03125 Z M 9.953125 -11.03125 "/></g></g></g><g fill="#000000" fill-opacity="1"><g transform="translate(52.886816, 314.271131)"><g><path d="M 0.890625 0 L 16.59375 0 L 16.59375 -4.71875 L 7.65625 -4.71875 L 16.484375 -17.375 L 16.484375 -21.109375 L 0.890625 -21.109375 L 0.890625 -16.421875 L 9.921875 -16.421875 L 0.890625 -3.59375 Z M 0.890625 0 "/></g></g></g><g fill="#000000" fill-opacity="1"><g transform="translate(71.810386, 314.271131)"><g><path d="M 0.515625 -20.9375 L 0.515625 -19.984375 L 8.546875 0.0625 L 12.265625 0.0625 L 20.34375 -20.1875 L 20.34375 -20.9375 L 15.125 -20.9375 L 11.65625 -12.203125 L 10.4375 -8.171875 L 9.21875 -12.203125 L 5.734375 -20.9375 Z M 0.515625 -20.9375 "/></g></g></g><g fill="#000000" fill-opacity="1"><g transform="translate(93.334772, 314.271131)"><g><path d="M 3.5 -17.078125 L 7.359375 -17.078125 L 7.359375 -17.765625 L 5.46875 -21.078125 L 0.0625 -21.078125 L 0.0625 -20.75 Z M 3.5 -17.078125 "/></g></g></g><g fill="#000000" fill-opacity="1"><g transform="translate(104.396104, 314.271131)"><g><path d="M 11.875 -14.328125 L 17.015625 -14.328125 C 17.015625 -19.140625 12.984375 -21.234375 9.234375 -21.234375 C 4.78125 -21.234375 1.015625 -18.484375 1.25 -13.875 L 1.25 -13.90625 C 1.640625 -9.09375 5.65625 -8.34375 9.03125 -8.015625 C 9.8125 -7.921875 12.203125 -7.859375 12.203125 -6.375 C 12.203125 -5.171875 10.859375 -4.6875 9.1875 -4.6875 C 8.015625 -4.6875 6.28125 -5.078125 6.28125 -7.140625 L 1.109375 -7.140625 C 1.109375 -1.828125 5.734375 0.265625 9.15625 0.265625 C 13.125 0.265625 17.375 -2.25 17.375 -6.609375 C 17.375 -7.0625 17.3125 -7.59375 17.21875 -8.078125 C 16.328125 -11.84375 12.59375 -12.625 9.625 -13.015625 C 8.9375 -13.0625 6.453125 -13.09375 6.453125 -14.65625 C 6.453125 -15.796875 7.5625 -16.484375 9.15625 -16.484375 C 10.734375 -16.484375 11.875 -15.734375 11.875 -14.328125 Z M 11.875 -14.328125 "/></g></g></g><g fill="#000000" fill-opacity="1"><g transform="translate(124.216515, 314.271131)"><g/></g></g><g fill="#000000" fill-opacity="1"><g transform="translate(132.826494, 314.271131)"><g><path d="M 6.125 -10.4375 C 6.125 -14.421875 9 -16.390625 11.875 -16.390625 C 14.265625 -16.390625 16.6875 -15.015625 17.375 -12.234375 L 22.546875 -12.234375 C 21.890625 -17.609375 17.25 -21.265625 11.875 -21.265625 C 5.890625 -21.265625 1.046875 -16.59375 1.046875 -10.4375 C 1.046875 -4.28125 5.890625 0.296875 11.875 0.296875 C 17.3125 0.296875 21.796875 -3.3125 22.578125 -8.796875 L 17.40625 -8.796875 C 16.75 -5.953125 14.328125 -4.515625 11.875 -4.515625 C 9 -4.515625 6.125 -6.484375 6.125 -10.4375 Z M 6.125 -10.4375 "/></g></g></g><g fill="#000000" fill-opacity="1"><g transform="translate(157.459912, 314.271131)"><g><path d="M 1.53125 -10.4375 C 1.53125 -4.28125 6.375 0.296875 12.34375 0.296875 C 18.328125 0.296875 23.203125 -4.359375 23.203125 -10.4375 C 23.203125 -16.59375 18.328125 -21.265625 12.34375 -21.265625 C 6.375 -21.265625 1.53125 -16.59375 1.53125 -10.4375 Z M 6.609375 -10.4375 C 6.609375 -14.421875 9.484375 -16.359375 12.34375 -16.359375 C 15.21875 -16.359375 18.0625 -14.390625 18.0625 -10.4375 C 18.0625 -6.515625 15.15625 -4.546875 12.296875 -4.546875 C 9.421875 -4.546875 6.609375 -6.484375 6.609375 -10.4375 Z M 6.609375 -10.4375 "/></g></g></g><g fill="#000000" fill-opacity="1"><g transform="translate(183.289111, 314.271131)"><g><path d="M 1.5 -20.9375 L 1.5 0 L 15.40625 0 L 15.40625 -4.9375 L 6.609375 -4.9375 L 6.609375 -20.9375 Z M 1.5 -20.9375 "/></g></g></g><g fill="#000000" fill-opacity="1"><g transform="translate(200.867441, 314.271131)"><g><path d="M 1.5 -20.9375 L 1.5 0 L 15.40625 0 L 15.40625 -4.9375 L 6.609375 -4.9375 L 6.609375 -20.9375 Z M 1.5 -20.9375 "/></g></g></g><g fill="#000000" fill-opacity="1"><g transform="translate(218.445771, 314.271131)"><g><path d="M 1.5 -21.109375 L 1.5 0 L 15.3125 0 L 15.3125 -4.9375 L 6.640625 -4.9375 L 6.640625 -8.28125 L 15.109375 -8.28125 L 15.109375 -13.25 L 6.640625 -13.25 L 6.640625 -16.171875 L 15.28125 -16.171875 L 15.28125 -21.109375 Z M 1.5 -21.109375 "/></g></g></g><g fill="#000000" fill-opacity="1"><g transform="translate(236.233356, 314.271131)"><g><path d="M 6.125 -10.4375 C 6.125 -14.421875 9 -16.390625 11.875 -16.390625 C 14.265625 -16.390625 16.6875 -15.015625 17.375 -12.234375 L 22.546875 -12.234375 C 21.890625 -17.609375 17.25 -21.265625 11.875 -21.265625 C 5.890625 -21.265625 1.046875 -16.59375 1.046875 -10.4375 C 1.046875 -4.28125 5.890625 0.296875 11.875 0.296875 C 17.3125 0.296875 21.796875 -3.3125 22.578125 -8.796875 L 17.40625 -8.796875 C 16.75 -5.953125 14.328125 -4.515625 11.875 -4.515625 C 9 -4.515625 6.125 -6.484375 6.125 -10.4375 Z M 6.125 -10.4375 "/></g></g></g><g fill="#000000" fill-opacity="1"><g transform="translate(260.866762, 314.271131)"><g><path d="M 17.375 -21.171875 L 0.984375 -21.171875 L 0.984375 -16.390625 L 6.640625 -16.390625 L 6.640625 0 L 11.75 0 L 11.75 -16.390625 L 17.375 -16.390625 Z M 17.375 -21.171875 "/></g></g></g><g fill="#000000" fill-opacity="1"><g transform="translate(280.717064, 314.271131)"><g><path d="M 13.34375 0 L 13.34375 -4.578125 L 9.875 -4.578125 L 9.875 -16.390625 L 13.34375 -16.390625 L 13.34375 -21.046875 L 1.28125 -21.046875 L 1.28125 -16.390625 L 4.75 -16.390625 L 4.75 -4.578125 L 1.28125 -4.578125 L 1.28125 0 Z M 13.34375 0 "/></g></g></g><g fill="#000000" fill-opacity="1"><g transform="translate(296.292449, 314.271131)"><g><path d="M 1.53125 -10.4375 C 1.53125 -4.28125 6.375 0.296875 12.34375 0.296875 C 18.328125 0.296875 23.203125 -4.359375 23.203125 -10.4375 C 23.203125 -16.59375 18.328125 -21.265625 12.34375 -21.265625 C 6.375 -21.265625 1.53125 -16.59375 1.53125 -10.4375 Z M 6.609375 -10.4375 C 6.609375 -14.421875 9.484375 -16.359375 12.34375 -16.359375 C 15.21875 -16.359375 18.0625 -14.390625 18.0625 -10.4375 C 18.0625 -6.515625 15.15625 -4.546875 12.296875 -4.546875 C 9.421875 -4.546875 6.609375 -6.484375 6.609375 -10.4375 Z M 6.609375 -10.4375 "/></g></g></g><g fill="#000000" fill-opacity="1"><g transform="translate(322.121648, 314.271131)"><g><path d="M 12.6875 -20.9375 L 12.6875 -10.46875 L 5.4375 -20.9375 L 1.5 -20.9375 L 1.5 0 L 6.578125 0 L 6.578125 -10.203125 L 13.734375 0 L 17.734375 0 L 17.734375 -20.9375 Z M 12.6875 -20.9375 "/></g></g></g><path stroke-linecap="butt" transform="matrix(0.75, 0, 0, 0.75, 18.310351, 283.521133)" fill="none" stroke-linejoin="miter" d="M 33.59141 12.852032 L 22.310159 12.852032 L 22.310159 40.997868 L 29.122659 40.997868 L 29.122659 32.7062 L 33.59141 32.7062 C 40.133077 32.7062 43.398702 27.721825 43.398702 22.815575 C 43.398702 17.909324 40.133077 12.852032 33.59141 12.852032 Z M 33.59141 26.289533 L 29.122659 26.289533 L 29.122659 19.466616 L 33.59141 19.466616 C 35.700785 19.466616 36.742452 21.258283 36.742452 22.945783 C 36.742452 24.570783 35.700785 26.289533 33.59141 26.289533 Z M 47.299744 40.997868 L 68.226829 40.997868 L 68.226829 34.700992 L 56.315369 34.700992 L 68.070579 17.831199 L 68.070579 12.852032 L 47.299744 12.852032 L 47.299744 19.107241 L 59.341411 19.107241 L 47.299744 36.211409 Z M 72.013287 13.091616 L 72.013287 14.367658 L 82.732038 41.075993 L 87.674747 41.075993 L 98.440372 14.086407 L 98.440372 13.091616 L 91.513288 13.091616 L 86.877871 24.732242 L 85.252871 30.117659 L 83.617455 24.732242 L 78.982038 13.091616 Z M 104.695581 18.232241 L 109.846623 18.232241 L 109.846623 17.315574 L 107.330998 12.888491 L 100.112247 12.888491 L 100.112247 13.325991 Z M 130.607041 21.904116 L 137.471625 21.904116 C 137.471625 15.487449 132.086208 12.695782 127.101832 12.695782 C 121.159124 12.695782 116.133082 16.362449 116.455998 22.497866 L 116.455998 22.4562 C 116.971623 28.883283 122.315374 29.872867 126.820582 30.310367 C 127.851833 30.440575 131.044541 30.5187 131.044541 32.513492 C 131.044541 34.096825 129.252874 34.742659 127.018499 34.742659 C 125.466416 34.742659 123.153916 34.227034 123.153916 31.471825 L 116.258082 31.471825 C 116.258082 38.565576 122.429957 41.362451 126.976832 41.362451 C 132.284124 41.362451 137.945583 38.013492 137.945583 32.190575 C 137.945583 31.586409 137.867458 30.878075 137.742458 30.232242 C 136.544541 25.211408 131.560166 24.169741 127.617458 23.654116 C 126.705999 23.575991 123.393499 23.539533 123.393499 21.466616 C 123.393499 19.945783 124.867457 19.029116 126.976832 19.029116 C 129.091416 19.029116 130.607041 20.034325 130.607041 21.904116 Z M 160.862251 27.0812 C 160.862251 21.784325 164.690377 19.148908 168.513294 19.148908 C 171.706002 19.148908 174.940377 20.98745 175.857044 24.695783 L 182.747669 24.695783 C 181.872669 17.513491 175.690377 12.654116 168.513294 12.654116 C 160.544543 12.654116 154.081001 18.872866 154.081001 27.0812 C 154.081001 35.294742 160.544543 41.398909 168.513294 41.398909 C 175.778919 41.398909 181.752878 36.570784 182.784128 29.279117 L 175.893502 29.279117 C 175.018502 33.065575 171.784127 34.982242 168.513294 34.982242 C 164.690377 34.982242 160.862251 32.346825 160.862251 27.0812 Z M 187.565378 27.0812 C 187.565378 35.294742 194.018504 41.398909 202.002879 41.398909 C 209.976838 41.398909 216.466422 35.180159 216.466422 27.0812 C 216.466422 18.872866 209.976838 12.654116 202.002879 12.654116 C 194.018504 12.654116 187.565378 18.872866 187.565378 27.0812 Z M 194.34142 27.0812 C 194.34142 21.784325 198.169545 19.185366 202.002879 19.185366 C 205.825796 19.185366 209.612255 21.825991 209.612255 27.0812 C 209.612255 32.305159 205.747671 34.935367 201.914337 34.935367 C 198.09142 34.935367 194.34142 32.346825 194.34142 27.0812 Z M 221.966422 13.091616 L 221.966422 40.997868 L 240.502882 40.997868 L 240.502882 34.419742 L 228.778922 34.419742 L 228.778922 13.091616 Z M 245.403924 13.091616 L 245.403924 40.997868 L 263.940383 40.997868 L 263.940383 34.419742 L 252.216424 34.419742 L 252.216424 13.091616 Z M 268.841425 12.852032 L 268.841425 40.997868 L 287.258093 40.997868 L 287.258093 34.419742 L 275.695592 34.419742 L 275.695592 29.950992 L 286.976843 29.950992 L 286.976843 23.3312 L 275.695592 23.3312 L 275.695592 19.430158 L 287.221635 19.430158 L 287.221635 12.852032 Z M 298.742469 27.0812 C 298.742469 21.784325 302.565386 19.148908 306.393511 19.148908 C 309.586219 19.148908 312.815386 20.98745 313.732053 24.695783 L 320.622679 24.695783 C 319.747678 17.513491 313.565386 12.654116 306.393511 12.654116 C 298.419552 12.654116 291.95601 18.872866 291.95601 27.0812 C 291.95601 35.294742 298.419552 41.398909 306.393511 41.398909 C 313.653928 41.398909 319.627887 36.570784 320.659137 29.279117 L 313.768511 29.279117 C 312.893511 33.065575 309.664344 34.982242 306.393511 34.982242 C 302.565386 34.982242 298.742469 32.346825 298.742469 27.0812 Z M 346.575805 12.773907 L 324.721637 12.773907 L 324.721637 19.148908 L 332.258096 19.148908 L 332.258096 40.997868 L 339.081013 40.997868 L 339.081013 19.148908 L 346.575805 19.148908 Z M 367.65914 40.997868 L 367.65914 34.898909 L 363.03414 34.898909 L 363.03414 19.148908 L 367.65914 19.148908 L 367.65914 12.924949 L 351.586222 12.924949 L 351.586222 19.148908 L 356.211223 19.148908 L 356.211223 34.898909 L 351.586222 34.898909 L 351.586222 40.997868 Z M 372.674765 27.0812 C 372.674765 35.294742 379.133099 41.398909 387.112266 41.398909 C 395.086225 41.398909 401.575809 35.180159 401.575809 27.0812 C 401.575809 18.872866 395.086225 12.654116 387.112266 12.654116 C 379.133099 12.654116 372.674765 18.872866 372.674765 27.0812 Z M 379.450807 27.0812 C 379.450807 21.784325 383.278933 19.185366 387.112266 19.185366 C 390.940391 19.185366 394.72685 21.825991 394.72685 27.0812 C 394.72685 32.305159 390.862266 34.935367 387.023725 34.935367 C 383.200808 34.935367 379.450807 32.346825 379.450807 27.0812 Z M 421.987269 13.091616 L 421.987269 27.039533 L 412.331018 13.091616 L 407.075809 13.091616 L 407.075809 40.997868 L 413.851851 40.997868 L 413.851851 27.404117 L 423.383102 40.997868 L 428.726852 40.997868 L 428.726852 13.091616 Z M 421.987269 13.091616 " stroke="#ffffff" stroke-width="2.741255" stroke-opacity="1" stroke-miterlimit="4"/><g clip-path="url(#6c81243788)"><path fill="#ff914d" d="M 218.84375 109.734375 L 218.84375 52.699219 L 156.621094 52.699219 L 156.621094 109.734375 L 187.730469 140.84375 Z M 141.066406 125.289062 L 84.03125 125.289062 L 84.03125 187.507812 L 141.066406 187.507812 L 172.175781 156.398438 Z M 156.621094 203.0625 L 156.621094 260.097656 L 218.84375 260.097656 L 218.84375 203.0625 L 187.730469 171.953125 Z M 234.398438 125.289062 L 203.289062 156.398438 L 234.398438 187.507812 L 291.433594 187.507812 L 291.433594 125.289062 Z M 234.398438 125.289062 " fill-opacity="1" fill-rule="nonzero"/></g><g clip-path="url(#0dc05a5f76)"><path fill="#004aad" d="M 156.144531 203.628906 L 156.144531 260.664062 L 218.367188 260.664062 L 218.367188 203.628906 L 187.257812 172.515625 Z M 233.921875 188.074219 L 290.957031 188.074219 L 290.957031 125.851562 L 233.921875 125.851562 L 202.8125 156.960938 Z M 218.367188 110.296875 L 218.367188 53.261719 L 156.144531 53.261719 L 156.144531 110.296875 L 187.257812 141.40625 Z M 140.589844 188.074219 L 171.699219 156.960938 L 140.589844 125.851562 L 83.554688 125.851562 L 83.554688 188.074219 Z M 140.589844 188.074219 " fill-opacity="1" fill-rule="nonzero"/></g><g clip-path="url(#b5657d14fc)"><path fill="#ff3131" d="M 234.441406 188.027344 L 291.476562 188.027344 L 291.476562 125.808594 L 234.441406 125.808594 L 203.332031 156.917969 Z M 218.886719 110.253906 L 218.886719 53.21875 L 156.664062 53.21875 L 156.664062 110.253906 L 187.777344 141.363281 Z M 141.109375 125.808594 L 84.074219 125.808594 L 84.074219 188.027344 L 141.109375 188.027344 L 172.222656 156.917969 Z M 218.886719 203.582031 L 187.777344 172.472656 L 156.664062 203.582031 L 156.664062 260.617188 L 218.886719 260.617188 Z M 218.886719 203.582031 " fill-opacity="1" fill-rule="nonzero"/></g><g clip-path="url(#8afa14c2ca)"><path fill="#00bf63" d="M 140.546875 125.332031 L 83.511719 125.332031 L 83.511719 187.550781 L 140.546875 187.550781 L 171.65625 156.441406 Z M 156.101562 203.109375 L 156.101562 260.144531 L 218.324219 260.144531 L 218.324219 203.109375 L 187.210938 171.996094 Z M 233.878906 187.550781 L 290.914062 187.550781 L 290.914062 125.332031 L 233.878906 125.332031 L 202.765625 156.441406 Z M 156.101562 109.777344 L 187.210938 140.886719 L 218.324219 109.777344 L 218.324219 52.742188 L 156.101562 52.742188 Z M 156.101562 109.777344 " fill-opacity="1" fill-rule="nonzero"/></g></svg>